<svg width="72" height="72" fill="none" xmlns="http://www.w3.org/2000/svg">
  <g style="mix-blend-mode:overlay" fill="#fff">
    <path d="M7.82609 37.5652H1.56522C.701217 37.5652 0 36.8656 0 36c0-.8655.701217-1.5652 1.56522-1.5652h6.26087c.864 0 1.56521.6997 1.56521 1.5652 0 .8656-.70121 1.5652-1.56521 1.5652zM16.078 17.6431c-.4007 0-.8014-.1534-1.1066-.4587l-4.4265-4.428c-.61196-.612-.61196-1.6012 0-2.2132.612-.61197 1.6013-.61197 2.2133 0l4.4264 4.428c.612.612.612 1.6012 0 2.2132-.3052.3068-.7059.4587-1.1066.4587zM36 9.3913c-.864 0-1.5652-.69965-1.5652-1.56521V1.56522C34.4348.699652 35.136 0 36 0c.864 0 1.5652.699652 1.5652 1.56522v6.26087c0 .86556-.7012 1.56521-1.5652 1.56521zM55.9221 17.6431c-.4007 0-.8014-.1534-1.1067-.4587-.612-.612-.612-1.6012 0-2.2132l4.4265-4.428c.6104-.61197 1.6012-.61197 2.2132 0 .612.612.612 1.6012 0 2.2132l-4.4264 4.428c-.3053.3068-.7059.4587-1.1066.4587zM70.4347 37.5652h-6.2608c-.864 0-1.5653-.6996-1.5653-1.5652 0-.8655.7013-1.5652 1.5653-1.5652h6.2608c.864 0 1.5652.6997 1.5652 1.5652 0 .8656-.7012 1.5652-1.5652 1.5652zM35.9999 15.6521c-11.2195 0-20.3478 9.1283-20.3478 20.3478 0 8.2174 4.9883 15.6209 12.5217 18.7638v9.4101H43.826v-9.4101c7.5334-3.1429 12.5218-10.5464 12.5218-18.7638 0-11.2195-9.1284-20.3478-20.3479-20.3478zM32.8695 72.0001h6.2609c2.5935 0 4.6956-2.1021 4.6956-4.6957H28.1738c0 2.5936 2.1021 4.6957 4.6957 4.6957z"/>
  </g>
</svg>
